# xmcd
# 
# Track frame offsets:
#     150
#     13202
#     27482
#     44240
#     61680
#     78257
#     90662
#     103170
#     115787
#     144027
#     170920
#     185550
#     202187
#     223002
#     234375
#     247267
#     265807
#     286147
#     308195
# 
# Disc length: 4402
# 
# Revision: 6
# Processed by: cddbd v1.5.2PL0 Copyright (c) Steve Scherf et al.
# Submitted via: fre:ac v1.0.31
# 
DISCID=1b113013
DTITLE=Various Artist - Delmark 40th Anniversary - Blues
DYEAR=1993
DGENRE=Blues
TTITLE0=Junior Wells - Snatch It Back And Hold It
TTITLE1=Big Joe Williams - Baby, Please Don't Go
TTITLE2=Jimmy Lee Robinson - Lonely Traveller
TTITLE3=Big Time Sarah - I Make Love
TTITLE4=Dave Specter and Barkin' Bill Smth - Things I'd Do For You
TTITLE5=Robert Lockwood - Ramblin' On My Mind
TTITLE6=Sleepy John Estes - I'd Been Well Warned
TTITLE7=Arthur 'BigBoy' Crudup - That's Allright
TTITLE8=Otis Rush - You're Breakin' My Heart
TTITLE9=J.B. Hutto - Slidewinder
TTITLE10=Roosevelt Sykes - Eagle Rock Me Baby
TTITLE11=Jimmy Johnson - Easy Money
TTITLE12=Curtis Jones - Highway 51
TTITLE13=Edith Wilson - Mistreatin' Blues
TTITLE14=Speckled Red - The Dirty Dozens
TTITLE15=Yank Rachell - Let Me Tangle In Your Vine
TTITLE16=Jesse Fortune - Fortune Tellin' Man
TTITLE17=Willie Kent - Memory Of You
TTITLE18=Magic Sam - I Need You So Bad
EXTD=
EXTT0=
EXTT1=
EXTT2=
EXTT3=
EXTT4=
EXTT5=
EXTT6=
EXTT7=
EXTT8=
EXTT9=
EXTT10=
EXTT11=
EXTT12=
EXTT13=
EXTT14=
EXTT15=
EXTT16=
EXTT17=
EXTT18=
PLAYORDER=
